<svg width="1200" height="630" viewBox="0 0 1200 630" fill="none" xmlns="http://www.w3.org/2000/svg">
  <rect width="1200" height="630" fill="#050814"/>
  <rect width="1200" height="630" fill="url(#paint0_radial_1_2)"/>
  <rect width="1200" height="630" fill="url(#paint1_radial_1_2)"/>
  <rect x="72" y="72" width="1056" height="486" rx="28" fill="#0B1020" fill-opacity="0.84" stroke="#FFFFFF" stroke-opacity="0.12"/>
  <rect x="120" y="132" width="960" height="330" rx="20" fill="#05070E"/>
  <rect x="150" y="162" width="900" height="270" rx="14" fill="url(#paint2_linear_1_2)"/>
  <circle cx="272" cy="297" r="92" fill="#8EF5FF" fill-opacity="0.24"/>
  <circle cx="360" cy="280" r="58" fill="#FF8AF2" fill-opacity="0.28"/>
  <circle cx="905" cy="252" r="70" fill="#8EF5FF" fill-opacity="0.18"/>
  <path d="M232 352C286 286.667 346 254.667 412 256C478 257.333 531.333 288 572 348C615.333 412 672.667 443.333 744 442C815.333 440.667 879.333 399.333 936 318" stroke="#8EF5FF" stroke-width="12" stroke-linecap="round"/>
  <path d="M236 298C289.333 324.667 336.667 336 378 332C419.333 328 469.333 300 528 248C586.667 196 649.333 174.667 716 184C782.667 193.333 853.333 244 928 336" stroke="#FF8AF2" stroke-width="10" stroke-linecap="round" stroke-opacity="0.85"/>
  <text x="120" y="518" fill="#F6F7FB" font-family="Arial, Helvetica, sans-serif" font-size="58" font-weight="700" letter-spacing="-0.04em">Strudel Background Template</text>
  <text x="120" y="562" fill="#B9C0D4" font-family="Arial, Helvetica, sans-serif" font-size="28">iframe-backed project shell with a preloaded Strudel + Hydra test page</text>
  <defs>
    <radialGradient id="paint0_radial_1_2" cx="0" cy="0" r="1" gradientUnits="userSpaceOnUse" gradientTransform="translate(160 108) rotate(31.2035) scale(565.443 448.636)">
      <stop stop-color="#8EF5FF" stop-opacity="0.22"/>
      <stop offset="1" stop-color="#8EF5FF" stop-opacity="0"/>
    </radialGradient>
    <radialGradient id="paint1_radial_1_2" cx="0" cy="0" r="1" gradientUnits="userSpaceOnUse" gradientTransform="translate(1044 138) rotate(137.278) scale(470.597 373.392)">
      <stop stop-color="#FF8AF2" stop-opacity="0.28"/>
      <stop offset="1" stop-color="#FF8AF2" stop-opacity="0"/>
    </radialGradient>
    <linearGradient id="paint2_linear_1_2" x1="150" y1="162" x2="1050" y2="432" gradientUnits="userSpaceOnUse">
      <stop stop-color="#0B1330"/>
      <stop offset="1" stop-color="#0D0F22"/>
    </linearGradient>
  </defs>
</svg>
